<?xml version="1.0" encoding="UTF-8" standalone="no"?>
<!-- Created with Inkscape (http://www.inkscape.org/) -->

<svg
   width="100mm"
   height="140mm"
   viewBox="0 0 100 140"
   version="1.1"
   id="svg1"
   xml:space="preserve"
   inkscape:version="1.4.3 (0d15f75, 2025-12-25)"
   sodipodi:docname="Logo de Girasol 2.svg"
   xmlns:inkscape="http://www.inkscape.org/namespaces/inkscape"
   xmlns:sodipodi="http://sodipodi.sourceforge.net/DTD/sodipodi-0.dtd"
   xmlns="http://www.w3.org/2000/svg"
   xmlns:svg="http://www.w3.org/2000/svg"><sodipodi:namedview
     id="namedview1"
     pagecolor="#ffffff"
     bordercolor="#000000"
     borderopacity="0.25"
     inkscape:showpageshadow="2"
     inkscape:pageopacity="0.0"
     inkscape:pagecheckerboard="0"
     inkscape:deskcolor="#d1d1d1"
     inkscape:document-units="mm"
     inkscape:zoom="1.3772587"
     inkscape:cx="237.06512"
     inkscape:cy="348.15536"
     inkscape:window-width="1920"
     inkscape:window-height="991"
     inkscape:window-x="-9"
     inkscape:window-y="-9"
     inkscape:window-maximized="1"
     inkscape:current-layer="g1"
     showgrid="false" /><defs
     id="defs1"><inkscape:path-effect
       effect="fillet_chamfer"
       id="path-effect19"
       is_visible="true"
       lpeversion="1"
       nodesatellites_param="F,0,0,1,0,0,0,1 @ F,0,0,1,0,0,0,1 @ F,0,0,1,0,2.6441294,0,1 @ F,0,1,1,0,0,0,1"
       radius="0"
       unit="px"
       method="auto"
       mode="F"
       chamfer_steps="1"
       flexible="false"
       use_knot_distance="true"
       apply_no_radius="true"
       apply_with_radius="true"
       only_selected="false"
       hide_knots="false" /><inkscape:path-effect
       effect="fillet_chamfer"
       id="path-effect19-4"
       is_visible="true"
       lpeversion="1"
       nodesatellites_param="F,0,0,1,0,0,0,1 @ F,0,0,1,0,0,0,1 @ F,0,0,1,0,2.6441294,0,1 @ F,0,0,1,0,0,0,1"
       radius="0"
       unit="px"
       method="auto"
       mode="F"
       chamfer_steps="1"
       flexible="false"
       use_knot_distance="true"
       apply_no_radius="true"
       apply_with_radius="true"
       only_selected="false"
       hide_knots="false" /></defs><g
     inkscape:label="Capa 1"
     inkscape:groupmode="layer"
     id="layer1"><g
       id="g1"
       transform="translate(-48.027166,-39.190168)"><path
         d="m 58.420351,139.09272 c 1.56515,2.54537 3.860972,3.60805 6.322055,5.00792 1.220473,0.69421 2.521109,1.23452 3.725497,1.91919 0.551932,0.31376 0.99313,0.78978 1.580513,1.0474 0.506023,0.22195 1.075405,0.20298 1.580514,0.42092 0.561256,0.24216 1.002338,0.68057 1.580514,0.89453 0.692708,0.25633 1.451723,0.16094 2.144983,0.41498 1.152696,0.42241 2.233412,0.53471 3.386814,0.86622 0.679699,0.19536 1.196379,0.7199 1.919195,0.81021 1.839896,0.22986 3.791445,-0.18266 5.644692,0.17221 0.67924,0.13007 1.228792,0.60866 1.919195,0.74104 0.791001,0.15167 1.590625,-0.12023 2.37077,0.0796 0.618529,0.15845 1.1569,0.53263 1.806302,0.5873 0.793884,0.0668 1.575714,-0.3 2.37077,-0.31569 0.616658,-0.0122 1.198198,0.22638 1.806302,0.20941 2.128289,-0.0594 4.286373,-0.38105 6.434963,-0.4656 0.8784,-0.0346 1.71076,0.3089 2.59655,0.24425 0.69324,-0.0506 1.33918,-0.35391 2.03209,-0.42213 1.94308,-0.19128 3.91994,-0.25002 5.87048,-0.50349 1.07351,-0.1395 2.09154,-0.57597 3.16103,-0.72362 0.57028,-0.0787 1.12775,0.14424 1.69341,0.0192 0.64922,-0.14357 1.17951,-0.56522 1.8063,-0.75306 2.06748,-0.61964 4.08712,-1.043 6.09627,-1.84254 1.65797,-0.6598 3.47707,-1.20917 5.08022,-2.01589 0.6038,-0.30385 1.07985,-0.81179 1.69341,-1.09584 0.61005,-0.28243 1.31191,-0.2575 1.91919,-0.54591 0.631,-0.29968 1.01854,-0.89785 1.58051,-1.29053 0.60133,-0.42017 1.33539,-0.52908 1.89829,-1.03486 0.62815,-0.56441 1.01688,-1.50029 1.48853,-2.19943 0.4231,0.60886 0.34129,1.33412 0.39452,2.03209 0.10002,1.31153 0.11993,2.39114 0.0615,3.7255 -0.10387,2.37208 0.007,5.08121 -1.19305,7.2252 -1.15258,2.05985 -2.70754,2.42344 -4.56898,3.48534 -1.25109,0.71371 -2.62453,1.24701 -3.83839,1.98592 -0.66894,0.4072 -1.21783,1.01638 -1.9192,1.36701 -0.5379,0.26892 -1.13676,0.22011 -1.6934,0.41447 -0.73042,0.25502 -1.34204,0.73367 -2.03209,1.07048 -0.68802,0.33583 -1.43677,0.2948 -2.14499,0.54435 -0.96179,0.3389 -1.78268,1.03436 -2.82234,1.14566 -0.68421,0.0733 -1.34639,-0.24521 -2.03209,-0.17021 -0.93484,0.10225 -1.6994,0.71063 -2.59656,0.91796 -0.83092,0.19203 -1.65968,-0.0192 -2.48366,0.12927 -0.95469,0.17207 -1.74389,0.79503 -2.70946,0.92964 -2.13377,0.29745 -4.72479,0.77623 -6.88652,0.70645 -1.87882,-0.0606 -3.781594,-0.47716 -5.644694,-0.54461 -0.90719,-0.0328 -1.792948,0.38834 -2.709459,0.3548 -2.119009,-0.0775 -4.316787,-0.52767 -6.434949,-0.69792 -0.906151,-0.0728 -1.798849,0.16535 -2.709452,0.0918 -0.918175,-0.0742 -1.800565,-0.54238 -2.709452,-0.71028 -1.113827,-0.20577 -2.297538,-0.12128 -3.386815,-0.35367 -0.78009,-0.16643 -1.411325,-0.65234 -2.144983,-0.93138 -0.629029,-0.23924 -1.285717,-0.19453 -1.919194,-0.38972 -0.699327,-0.21548 -1.322069,-0.614 -2.032089,-0.80603 -1.734775,-0.46916 -3.594348,-1.01976 -5.193117,-1.85882 -0.540595,-0.28372 -0.924089,-0.77618 -1.467619,-1.05438 -0.604545,-0.30942 -1.302073,-0.31141 -1.919196,-0.58529 -0.80472,-0.35713 -1.524103,-0.93965 -2.257876,-1.41944 -0.834348,-0.54556 -1.483098,-1.18995 -2.258313,-1.80116 -0.393593,-0.31033 -0.956836,-0.48727 -1.225717,-0.92894 -1.078596,-1.77176 -1.051933,-4.01177 -1.051933,-5.97153 0,-1.6242 -0.186413,-3.10291 -0.01246,-4.74154 0.122262,-1.15168 -0.53598,-2.22688 -0.193121,-3.38681 h 0.225787"
         style="fill:#f1f092;stroke:none;fill-opacity:1"
         id="path1" /><path
         d="m 91.70573,132.00528 c -0.186782,-0.0504 -0.568835,-0.17696 -0.849008,-0.28117 -0.472085,-0.1756 -0.591852,-0.19067 -1.634826,-0.20572 -1.269428,-0.0183 -1.464302,-0.0573 -2.379279,-0.47628 -0.975939,-0.44687 -1.090051,-0.46074 -3.660931,-0.44481 -1.369422,0.008 -2.424075,-0.0143 -2.648905,-0.0572 -0.205459,-0.0392 -0.694489,-0.22218 -1.086731,-0.40659 -0.853525,-0.40125 -1.315424,-0.52987 -3.05643,-0.85103 -2.514391,-0.46383 -3.17455,-0.67669 -4.414845,-1.42349 -0.390999,-0.23542 -0.659381,-0.33864 -1.15465,-0.44406 -0.793702,-0.16893 -1.302289,-0.41429 -3.664428,-1.7678 -0.988134,-0.5662 -2.164861,-1.21396 -2.614946,-1.43946 -2.525202,-1.26517 -3.789373,-2.05808 -4.75868,-2.98475 -0.73149,-0.6993 -1.207143,-1.30994 -1.552792,-1.99346 -0.359587,-0.71108 -0.394567,-0.96432 -0.34169,-2.47357 0.03485,-0.99464 0.01556,-1.77698 -0.07675,-3.11107 -0.06782,-0.98026 -0.103579,-1.80202 -0.07946,-1.82613 0.0241,-0.0241 0.204486,0.0253 0.400823,0.10971 0.474594,0.20417 1.308055,0.25342 1.820622,0.10759 1.089488,-0.30998 1.26932,-0.33835 1.574744,-0.24842 0.414041,0.1219 0.964512,0.7109 1.339342,1.43308 1.026472,1.9777 2.425224,3.51094 3.867512,4.23938 0.908289,0.45873 2.016229,0.54861 4.169611,0.33826 1.186617,-0.11591 2.00863,-0.0925 2.676965,0.0763 0.594331,0.15008 1.539676,0.64659 2.265262,1.18975 1.941353,1.45326 2.608101,1.76248 3.800271,1.76248 0.75457,0 1.177718,-0.1022 2.482392,-0.59957 1.583939,-0.60383 2.343655,-0.68351 3.121541,-0.32738 0.208293,0.0954 0.767884,0.44636 1.243534,0.78 0.475649,0.33364 0.994759,0.67194 1.153578,0.75178 1.104953,0.55548 2.317549,0.42895 4.882747,-0.5095 1.655874,-0.60578 2.341748,-0.77929 3.250653,-0.82235 1.307171,-0.0619 2.249495,0.17154 4.730754,1.17209 2.79235,1.12602 4.03817,1.36427 5.65728,1.08192 1.24209,-0.2166 2.31824,-0.63926 4.97242,-1.95293 2.39892,-1.18732 2.79413,-1.28692 5.55912,-1.40101 2.37358,-0.0979 2.80554,-0.23158 4.4243,-1.36879 1.89487,-1.33118 2.54269,-1.47252 4.73948,-1.034 0.74407,0.14852 1.08168,0.17817 2.07709,0.18239 1.24762,0.005 1.58397,-0.04 2.54038,-0.34236 1.18345,-0.37411 1.95444,-0.88754 3.40268,-2.26595 2.0869,-1.98629 2.51338,-2.27527 4.81668,-3.26382 l 1.22826,-0.52715 0.0552,3.03287 c 0.0529,2.90579 0.0488,3.08696 -0.0971,4.32337 l -0.15239,1.2905 -0.37829,0.37629 c -0.23222,0.231 -0.56174,0.68995 -0.85338,1.18861 -0.51639,0.88293 -0.86886,1.28845 -1.29085,1.48515 -0.14942,0.0696 -0.48753,0.22815 -0.75135,0.35222 -0.33505,0.15755 -0.67061,0.40153 -1.11292,0.80917 -0.75406,0.69494 -0.97062,0.81434 -1.79059,0.9872 -0.89811,0.18934 -1.1065,0.28346 -1.94817,0.87996 -0.75982,0.53848 -0.83221,0.571 -2.25536,1.01315 -0.25027,0.0778 -1.18248,0.49462 -2.07158,0.92635 -2.50408,1.21595 -3.23428,1.47678 -5.21634,1.86336 -1.53939,0.30025 -2.24918,0.49708 -2.96361,0.82183 -0.8209,0.37315 -1.28414,0.46841 -2.28148,0.46914 -0.55005,5.3e-4 -1.15717,0.0841 -2.92058,0.40255 -4.90797,0.88634 -8.00896,1.25131 -9.26011,1.08988 -1.24301,-0.16038 -2.45723,-0.15303 -4.750321,0.0288 -3.273776,0.25955 -3.74253,0.27551 -4.380885,0.1491 -0.710888,-0.14077 -1.101479,-0.13573 -1.94927,0.0251 -0.998919,0.18954 -1.459818,0.21701 -1.854288,0.11051 z"
         style="fill:#f1f092;fill-opacity:1;fill-rule:evenodd;stroke:none;stroke-width:0.513416;stroke-opacity:1"
         id="path1-5" /><path
         style="fill:#45270f;fill-opacity:1;fill-rule:evenodd;stroke:#000000;stroke-width:10.977"
         d=""
         id="path8"
         transform="scale(0.26458333)" /><g
         id="g6"
         transform="translate(-0.54336536,2.5809854)"
         style="fill:#800080"><path
           style="fill:#800080;fill-rule:evenodd;stroke-width:0.339582"
           d="m 150.23838,379.14852 c -0.56475,-0.27547 -1.46002,-0.64031 -1.98948,-0.81076 -2.2511,-0.7247 -6.4054,-0.95785 -13.22047,-0.74195 -4.59844,0.14568 -8.02043,0.0411 -9.67027,-0.29556 -0.68048,-0.13885 -1.57976,-0.52412 -3.46554,-1.4847 -2.79447,-1.42345 -3.39425,-1.6179 -8.32036,-2.69744 -3.20085,-0.70145 -5.60359,-1.32843 -7.38715,-1.92763 -0.85675,-0.28783 -2.07273,-0.58248 -2.8509,-0.69081 -0.74632,-0.10389 -2.02117,-0.28144 -2.83301,-0.39454 -2.456033,-0.34216 -3.271242,-0.69093 -6.703082,-2.86778 -1.64403,-1.04283 -2.706732,-1.44632 -5.100698,-1.93668 -2.8188,-0.57738 -3.552594,-0.92674 -6.367056,-3.03137 -2.040331,-1.52574 -3.398381,-2.28586 -9.61781,-5.38329 -6.574103,-3.27406 -15.271335,-8.14196 -18.996395,-10.63242 -4.776699,-3.19355 -8.575125,-6.87591 -11.060021,-10.72204 -0.678333,-1.04993 -0.786446,-1.15912 -1.152551,-1.16397 l -0.404001,-0.005 -0.09635,-1.76487 c -0.102607,-1.87945 -0.0027,-3.30948 0.464202,-6.64232 0.221495,-1.58118 0.260585,-2.37841 0.218701,-4.4603 l -0.051,-2.53499 h 0.358683 c 0.302033,0 0.410637,0.10253 0.687637,0.64916 1.29646,2.55844 3.62429,5.46082 6.349779,7.91703 3.54838,3.19779 7.0435,5.39952 15.791249,9.94758 4.550528,2.36588 7.188709,3.81271 13.85853,7.60028 4.236086,2.40553 7.628916,4.14051 9.113136,4.66015 0.600055,0.21009 1.84188,0.56897 2.759612,0.79751 1.862565,0.46384 2.713568,0.81495 4.456141,1.83855 4.232552,2.48623 6.759294,3.29885 15.466474,4.97419 7.55714,1.45406 8.60356,1.73642 12.10171,3.26551 3.25058,1.42088 3.9103,1.62004 5.77593,1.74367 0.88244,0.0585 4.75231,0.10953 8.59972,0.11345 9.37779,0.01 10.10474,0.0847 13.06003,1.34907 l 1.44398,0.61781 v 7.61874 c 0,4.19032 -0.0433,7.61384 -0.0963,7.60783 -0.0529,-0.006 -0.55834,-0.2363 -1.1231,-0.51176 z"
           id="path4"
           transform="matrix(0.26458333,0,0,0.26458333,48.027166,39.190168)" /><path
           style="fill:#800080;fill-rule:evenodd;stroke-width:0.480242"
           d="m 259.93664,368.83116 c 0,-6.808 0.0243,-7.39534 0.31116,-7.5054 0.17113,-0.0657 1.90691,-0.19874 3.8573,-0.29571 4.11128,-0.2044 5.60207,-0.50284 8.36557,-1.67468 3.35132,-1.4211 5.26406,-1.962 11.33585,-3.2057 7.77674,-1.59292 10.08052,-2.40013 19.04579,-6.67332 5.69876,-2.71625 8.09053,-3.73653 10.55807,-4.50384 2.97899,-0.92636 3.98077,-1.41424 6.67156,-3.24915 2.98318,-2.03429 4.0363,-2.51615 7.18967,-3.28968 3.57752,-0.87758 3.61455,-0.89897 7.94371,-4.59029 1.46865,-1.25227 2.22621,-1.73188 4.37093,-2.76724 3.06506,-1.47966 3.78548,-2.11299 5.59303,-4.91694 0.66435,-1.03055 1.57776,-2.44552 2.0298,-3.14437 1.41745,-2.19134 2.00288,-2.81356 2.64721,-2.81356 h 0.56807 l 0.01,3.22198 c 0.006,1.77209 0.0784,4.56977 0.16206,6.21706 0.0836,1.6473 0.0928,3.62597 0.0203,4.39706 -0.11845,1.26079 -0.16856,1.39789 -0.4976,1.3614 -0.29405,-0.0326 -0.73114,0.56517 -2.22664,3.04526 -1.21761,2.01925 -2.28684,3.54398 -3.09349,4.41133 -1.17619,1.26469 -1.38349,1.39912 -4.51994,2.93111 -3.17448,1.55056 -3.35568,1.66908 -5.28393,3.45612 -3.23382,2.99701 -3.75485,3.27726 -7.78024,4.1849 -2.89113,0.65189 -4.30743,1.30701 -6.83212,3.16022 -2.89423,2.12448 -6.38872,3.721 -15.31995,6.99921 -2.40623,0.88321 -5.67464,2.10469 -7.26312,2.71441 -3.60963,1.38551 -7.81147,2.71038 -13.53941,4.26908 -8.36201,2.27548 -9.46287,2.62573 -12.00016,3.81796 -3.60699,1.69486 -4.20559,1.83044 -7.02498,1.59118 -1.72527,-0.14641 -2.67935,-0.14113 -3.801,0.0211 l -1.49754,0.21654 z"
           id="path5"
           transform="matrix(0.26458333,0,0,0.26458333,48.027166,39.190168)" /><path
           style="fill:#800080;fill-rule:evenodd;stroke-width:0.480242"
           d="m 168.72284,383.02179 c -0.59902,-0.17742 -1.74259,-0.58894 -2.54128,-0.91448 -2.92266,-1.19127 -2.9268,-1.19194 -7.06278,-1.13911 -4.00127,0.0511 -4.92753,-0.0671 -6.78553,-0.86618 l -0.85481,-0.36761 0.0532,-7.38696 c 0.0293,-4.06282 0.0932,-7.42688 0.14197,-7.47569 0.0831,-0.0831 0.39909,-0.006 2.70911,0.65703 0.57632,0.16554 2.47096,0.31876 5.19068,0.41976 l 4.28309,0.15906 2.88695,0.94571 c 2.62349,0.85941 3.03605,0.94534 4.52064,0.94163 0.94516,-0.002 2.81946,-0.21152 4.44724,-0.49628 3.33779,-0.5839 5.22753,-0.63074 7.80536,-0.19346 2.25271,0.38213 5.50296,0.31692 12.79716,-0.25675 8.40996,-0.66143 10.33244,-0.76296 14.43084,-0.76211 2.32794,4.8e-4 5.32496,0.12215 6.96959,0.28295 3.77615,0.36919 6.50501,0.22908 14.35901,-0.73724 4.79743,-0.59026 10.22585,-1.43396 19.0596,-2.96229 3.99344,-0.69091 7.60796,-1.31 8.03226,-1.37578 l 0.77146,-0.11958 v 7.42414 7.42415 l -3.58502,0.94613 c -1.97176,0.52037 -4.15681,1.06135 -4.85566,1.20218 -1.82395,0.36756 -7.55789,0.92876 -14.88464,1.45681 -8.47167,0.61057 -9.50693,0.73397 -12.40476,1.4786 -3.51673,0.90365 -5.08559,0.9611 -9.19612,0.33675 -4.167,-0.63292 -4.15036,-0.63353 -19.78568,0.72031 -1.69721,0.14696 -4.58895,0.35436 -6.42608,0.46089 -3.13279,0.18165 -3.48227,0.16871 -5.62712,-0.20834 -3.11008,-0.54674 -4.76514,-0.50993 -8.22679,0.18294 -3.20668,0.64185 -4.63457,0.69298 -6.22193,0.22282 z"
           id="path6"
           transform="matrix(0.26458333,0,0,0.26458333,48.027166,39.190168)" /></g><g
         id="g7"
         transform="translate(1.3584134,-12.089879)"><ellipse
           style="fill:#902f14;fill-opacity:1;fill-rule:evenodd;stroke-width:0.844881"
           id="path7"
           cx="97.769455"
           cy="101.88094"
           rx="43.037338"
           ry="15.417993" /><path
           style="fill:#5f1f0d;fill-opacity:1;fill-rule:evenodd;stroke:none;stroke-width:0.513416;stroke-opacity:1"
           d="m 102.85315,125.92747 c -0.86022,-0.12546 -1.80002,-0.43494 -3.731791,-1.22888 -2.179372,-0.8957 -3.157689,-1.15642 -4.356529,-1.16102 -0.980511,-0.004 -1.565404,0.14265 -3.326595,0.83274 -1.820384,0.71329 -2.322227,0.84522 -3.22775,0.84859 -1.003406,0.004 -1.213681,-0.0861 -2.875627,-1.22824 -0.925819,-0.63625 -1.335609,-0.79275 -2.082583,-0.7953 -0.669322,-0.002 -1.023419,0.0902 -2.19859,0.57408 -1.48323,0.61076 -2.222373,0.72843 -3.117947,0.49636 -0.725758,-0.18806 -1.247299,-0.49045 -2.797548,-1.62203 -0.869178,-0.63444 -1.683991,-1.06676 -2.309027,-1.22511 -0.523505,-0.13262 -1.781413,-0.13243 -2.889337,5.3e-4 -2.574976,0.30884 -3.872783,-0.0202 -5.136071,-1.30233 -0.284109,-0.28834 -0.819443,-1.01829 -1.490842,-2.03285 -1.117137,-1.68811 -1.757712,-2.43819 -2.28767,-2.67875 -0.382942,-0.17382 -1.008216,-0.172 -1.860349,0.005 -0.957807,0.19943 -1.431231,0.19098 -1.890548,-0.0338 -0.673661,-0.32959 -1.167426,-1.05155 -1.49855,-2.19109 -0.603279,-2.07617 -0.912198,-4.77723 -0.915051,-8.00083 -7.93e-4,-0.82184 -0.03245,-1.93743 -0.0705,-2.4791 -0.06996,-0.99604 -0.03082,-1.9697 0.07917,-1.9697 0.03297,0 0.05994,0.0502 0.05994,0.11154 0,0.22348 0.292375,1.0907 0.551164,1.63483 0.628933,1.32237 1.869141,2.82133 3.650086,4.4116 5.237596,4.67686 15.560823,8.257 27.178098,9.42548 3.490782,0.35111 6.688939,0.47617 10.833344,0.42362 3.300493,-0.0419 4.417713,-0.0884 7.709003,-0.32095 10.04401,-0.70979 16.82652,-2.05828 23.79621,-4.73115 5.66764,-2.17353 9.53738,-4.88828 11.81513,-8.28869 l 0.42058,-0.62788 0.0429,0.89956 c 0.0724,1.51856 0.0631,4.62508 -0.0161,5.36268 -0.21265,1.97992 -0.9238,3.60275 -2.02592,4.62313 -0.50668,0.46909 -0.98394,0.73983 -2.51713,1.42792 -0.65401,0.29352 -1.43362,0.69733 -1.73247,0.89736 -0.29886,0.20003 -1.04768,0.8409 -1.66406,1.42416 -1.35644,1.28356 -2.0786,1.84556 -2.88663,2.24642 -1.27693,0.6335 -2.18093,0.70735 -4.51672,0.36902 -1.64806,-0.23871 -2.4825,-0.25732 -3.20886,-0.0716 -0.75727,0.19368 -1.09226,0.37758 -2.66628,1.46371 -1.14521,0.79023 -2.06054,1.05197 -3.69359,1.0562 -1.35704,0.004 -2.62389,0.10948 -3.1797,0.26596 -0.61502,0.17316 -1.59983,0.60092 -3.58456,1.557 -2.13832,1.03007 -3.18237,1.40127 -4.51866,1.60658 -0.70414,0.10819 -1.24117,0.11533 -1.86206,0.0248 z"
           id="path62-5" /></g></g></g></svg>
