<?xml version="1.0" encoding="UTF-8" standalone="no"?>
<!-- Created with Inkscape (http://www.inkscape.org/) -->

<svg
   width="50mm"
   height="50mm"
   viewBox="0 0 50 50"
   version="1.1"
   id="svg1"
   xml:space="preserve"
   inkscape:export-filename="x.png"
   inkscape:export-xdpi="96"
   inkscape:export-ydpi="96"
   inkscape:version="1.4.3 (0d15f75, 2025-12-25)"
   sodipodi:docname="Iconos original.svg"
   xmlns:inkscape="http://www.inkscape.org/namespaces/inkscape"
   xmlns:sodipodi="http://sodipodi.sourceforge.net/DTD/sodipodi-0.dtd"
   xmlns="http://www.w3.org/2000/svg"
   xmlns:svg="http://www.w3.org/2000/svg"><sodipodi:namedview
     id="namedview1"
     pagecolor="#ffffff"
     bordercolor="#000000"
     borderopacity="0.25"
     inkscape:showpageshadow="2"
     inkscape:pageopacity="0.0"
     inkscape:pagecheckerboard="0"
     inkscape:deskcolor="#d1d1d1"
     inkscape:document-units="mm"
     inkscape:zoom="0.68862935"
     inkscape:cx="153.92896"
     inkscape:cy="-150.29856"
     inkscape:window-width="1920"
     inkscape:window-height="991"
     inkscape:window-x="-9"
     inkscape:window-y="-9"
     inkscape:window-maximized="1"
     inkscape:current-layer="layer1" /><defs
     id="defs1" /><g
     inkscape:label="Capa 1"
     inkscape:groupmode="layer"
     id="layer1"><path
       style="fill:#000000"
       d="m 125.44592,-21.551111 c -8.46405,-1.17199 -15.2361,-6.815796 -18.09041,-15.076494 -0.8407,-2.433067 -0.86851,-2.649078 -0.86851,-6.746875 0,-4.093941 0.0285,-4.316098 0.86607,-6.746875 4.07393,-11.823569 16.30146,-17.971331 27.95508,-14.055268 6.77739,2.277461 12.18954,7.997028 14.22638,15.034443 0.78454,2.710646 0.83585,8.51322 0.099,11.191658 -2.14286,7.788818 -8.27955,13.924938 -15.86694,15.865466 -2.35873,0.603262 -6.09055,0.842737 -8.32063,0.533945 z m 12.15219,-8.101371 c 1.75544,-0.811689 3.27995,-2.297527 4.12692,-4.022229 l 0.73548,-1.497686 v -7.9375 c 0,-7.172967 -0.0486,-8.063427 -0.50424,-9.244899 -0.63979,-1.658863 -2.26963,-3.434226 -3.98305,-4.338675 l -1.33354,-0.703926 h -8.33437 c -8.13738,0 -8.36328,0.01424 -9.55686,0.602317 -1.54232,0.759899 -3.23982,2.462039 -4.00632,4.017269 -0.57504,1.166762 -0.59203,1.440514 -0.59203,9.535622 0,8.240894 0.007,8.34773 0.62336,9.525 0.74495,1.422858 2.24923,3.058778 3.34539,3.638151 1.94847,1.029863 2.71041,1.105311 10.58333,1.047956 7.21443,-0.05256 7.746,-0.08969 8.89593,-0.6214 z m -17.67075,-2.459976 c -1.27538,-0.579075 -2.46787,-1.813376 -2.91286,-3.014982 -0.20762,-0.560614 -0.31728,-3.232138 -0.33073,-8.057101 -0.0219,-7.860171 0.0594,-8.394211 1.51526,-9.94674 1.53491,-1.636871 2.11617,-1.740358 9.81099,-1.746763 4.77263,-0.004 7.32525,0.09712 8.0698,0.319583 1.40567,0.420005 3.12175,2.136088 3.54176,3.541761 0.41225,1.379713 0.44895,14.06584 0.0449,15.520806 -0.36119,1.300614 -1.69064,2.795953 -3.02453,3.401929 -0.94356,0.428648 -1.86359,0.481821 -8.33665,0.481821 -6.5713,0 -7.38277,-0.04846 -8.37795,-0.500314 z m 11.71916,-4.462259 c 3.6243,-1.857952 5.05971,-6.534972 3.10684,-10.123038 -2.82451,-5.189556 -9.95507,-5.204889 -12.99836,-0.02795 -0.63826,1.085753 -0.72546,1.50563 -0.72345,3.483515 0.003,2.535025 0.34169,3.426781 1.9451,5.115037 1.67987,1.768767 3.10164,2.314032 5.72553,2.195813 1.23035,-0.05543 2.21875,-0.271413 2.94434,-0.643377 z m -5.33051,-2.259146 c -2.67989,-1.216495 -3.61404,-4.893469 -1.83558,-7.225154 1.96152,-2.57168 5.92743,-2.496564 7.67579,0.145382 1.43476,2.168074 0.97756,4.961964 -1.06722,6.521591 -1.16415,0.887943 -3.45607,1.155974 -4.77299,0.558181 z m 10.91898,-10.955668 c 0.36328,-0.475574 0.43392,-1.620353 0.12824,-2.078152 -0.68055,-1.019219 -2.38169,-0.945125 -2.95642,0.128769 -0.43542,0.81359 -0.33826,1.319441 0.3941,2.051802 0.52326,0.523256 0.83516,0.636125 1.38906,0.502658 0.39286,-0.09466 0.86312,-0.366948 1.04502,-0.605077 z"
       id="path2"
       sodipodi:nodetypes="sssssscssssscssscsssssssssssscsssssssssscssssssssssssss" /><path
       style="fill:#000000"
       d="m 48.811099,-22.788417 v -7.40833 h 2.48638 2.48638 l 0.31153,-1.78594 c 0.17134,-0.98226 0.37874,-2.35148 0.46089,-3.0427 l 0.14936,-1.25678 h -2.94727 -2.94727 v -2.25745 c 0,-3.91033 0.84292,-4.8863 4.22019,-4.8863 h 1.86522 v -2.64583 c 0,-1.45521 -0.0298,-2.655299 -0.0662,-2.666871 -0.73855,-0.23491 -4.972,-0.363762 -6.14358,-0.186991 -4.56272,0.688431 -6.49027,3.595562 -6.49027,9.788622 v 2.85482 h -2.64584 -2.64583 v 3.04271 3.04271 h 2.64583 2.64584 v 7.27604 c 0,8.40273 0.33219,7.70694 -3.10783,6.50952 -2.9969,-1.04318 -5.65867,-2.68038 -7.968207,-4.9011 -3.01677,-2.90074 -4.64978,-5.53541 -5.99872,-9.67821 -0.65198,-2.00232 -0.73438,-2.65518 -0.75139,-5.95312 -0.0233,-4.51371 0.36814,-6.25413 2.2908,-10.18577 1.21298,-2.480408 1.64236,-3.060647 4.01502,-5.425627 3.912337,-3.899677 7.624137,-5.774126 12.843237,-6.485804 7.26858,-0.991143 15.15735,2.209137 19.92607,8.08351 1.68462,2.075218 3.72945,6.332731 4.31615,8.986601 0.64982,2.93941 0.58697,7.26714 -0.14603,10.05417 -2.13108,8.10291 -8.1898,14.08726 -16.32917,16.12871 -2.73036,0.68481 -2.47535,1.40602 -2.47535,-7.00059 z"
       id="path3"
       sodipodi:nodetypes="ccccsscccsscscsscccccccsssssssssssscc" /><path
       style="fill:#000000;stroke-width:0.359767"
       d="M 23.240924,47.081721 C 14.169001,46.396845 6.4226632,40.103946 3.9086472,31.376733 2.4509192,26.316312 2.8809622,20.791052 5.0980702,16.094606 7.9413692,10.071747 13.298258,5.7036163 19.765113,4.1347893 c 1.84491,-0.44757 3.031487,-0.580921 5.142294,-0.577911 3.598971,0.0051 6.604114,0.716779 9.805683,2.322089 2.04141,1.023596 3.914411,2.380353 5.57903,4.041336 3.648076,3.6401067 5.85131,8.3663547 6.32251,13.5627287 0.488591,5.388119 -1.156877,10.922791 -4.54022,15.271519 -3.080497,3.959466 -7.602983,6.795813 -12.586065,7.893559 -1.867267,0.411346 -4.302999,0.5804 -6.247421,0.433611 z M 16.051657,35.781124 c 1.348188,-1.447341 7.64447,-7.92091 7.700322,-7.917163 0.03325,0.0022 1.624411,1.90645 3.536096,4.23161 l 3.47581,4.227566 3.213931,0.0026 c 1.767659,0.0014 3.213931,-0.02221 3.213931,-0.05247 0,-0.03024 -0.396378,-0.531918 -0.880856,-1.1148 -2.338265,-2.813247 -3.649633,-4.399787 -4.97088,-6.013984 -0.514029,-0.627988 -1.095323,-1.334476 -1.291781,-1.56997 -1.974261,-2.366659 -2.766901,-3.356057 -2.74206,-3.422724 0.0162,-0.04354 1.227968,-1.314363 2.692751,-2.824043 1.464773,-1.509682 3.223,-3.322911 3.907164,-4.029395 0.684165,-0.706487 1.692614,-1.746737 2.24099,-2.311666 0.548387,-0.564928 1.011338,-1.068031 1.028804,-1.118007 0.01918,-0.05509 -0.528543,-0.09087 -1.390974,-0.09087 h -1.422699 l -2.511192,2.592826 c -1.38116,1.426058 -3.118169,3.213681 -3.860051,3.972501 -0.74186,0.758817 -1.518141,1.564944 -1.725053,1.791389 l -0.376216,0.41172 -0.41751,-0.506868 c -1.712873,-2.079394 -2.327832,-2.824652 -3.087755,-3.741927 -0.47689,-0.575656 -1.442468,-1.742428 -2.145708,-2.592828 l -1.27862,-1.546182 h -3.227806 c -2.567076,0 -3.209242,0.02434 -3.13717,0.118935 0.04987,0.06541 1.306658,1.596136 2.792914,3.401601 2.451056,2.977489 3.380091,4.102756 6.085833,7.371411 0.475303,0.574177 0.853053,1.074421 0.839476,1.111652 -0.04156,0.113888 -4.581364,4.824302 -8.4454,8.762812 l -1.470282,1.498607 h 1.527871 1.527871 z m 7.582182,-10.470054 -7.510984,-9.011837 1.225954,-0.04757 c 0.674286,-0.02617 1.27504,-0.02617 1.335005,0 0.0601,0.02616 1.62196,1.867311 3.471079,4.091436 11.668507,14.035048 11.459847,13.782899 11.497562,13.893725 0.01971,0.05797 -0.448842,0.09192 -1.237954,0.08969 l -1.269711,-0.0035 z"
       id="path4" /><g
       id="g672"
       transform="matrix(0.39367528,0,0,0.39367528,104.35976,-81.667137)"><path
         style="fill:#000000"
         d="m -25.939988,321.11455 c -0.15064,-0.28148 -0.27845,-0.66843 -0.28402,-0.8599 -0.006,-0.19147 2.15967,-6.84526 4.81162,-14.7862 l 4.82175,-14.43808 -1.39795,-2.72151 c -4.13965,-8.05904 -6.21883,-16.79286 -6.20899,-26.0815 0.0113,-10.62302 2.69276,-20.37355 8.04569,-29.2558 1.89388,-3.14257 2.35085,-3.79145 4.73784,-6.72754 2.5627902,-3.15233 3.0852902,-3.7018 5.9404202,-6.24701 11.65851,-10.39303 26.2002298,-15.322 42.0707098,-14.26004 13.82192,0.92488 26.29383,6.59954 36.136,16.44171 8.81767,8.81767 14.28918,20.0543 16.01857,32.89673 0.365536,2.71446 0.431545,4.53413 0.316692,8.73017 -0.245993,8.98705 -1.798148,15.4277 -5.613367,23.29261 -6.738925,13.892 -17.937255,23.76201 -32.807395,28.91585 -5.60823,1.94376 -11.14863,2.80457 -18.12396,2.81594 -9.01638,0.0147 -16.58117,-1.60531 -24.0436698,-5.14894 l -2.87372,-1.36461 -4.33453,1.36905 c -2.384,0.75298 -6.29907,2.00682 -8.70017,2.78632 -16.8601902,5.4735 -17.9241102,5.74033 -18.5115202,4.64275 z m 12.72716,-4.67231 c 6.1645802,-1.97811 12.89781024,-4.13345 14.9627402,-4.78963 l 3.75442,-1.19306 2.50581,1.21889 c 8.0330098,3.90746 15.3956298,5.58961 24.3811898,5.57042 10.49438,-0.0224 19.71395,-2.58311 28.41479,-7.8921 13.71859,-8.37068 22.949865,-21.99954 25.829117,-38.13357 0.591086,-3.31218 0.803866,-10.71266 0.415097,-14.43706 -2.411404,-23.1012 -18.951434,-42.19167 -41.456624,-47.84915 -12.66444,-3.18366 -26.40226,-1.65546 -38.0323698,4.23074 -10.97,5.5521 -19.9626802,14.84116 -25.1835602,26.01352 -4.2244,9.03997 -5.98254,19.95063 -4.74537,29.44871 1.01518,7.79383 2.92236,13.66591 6.70551,20.64586 l 0.89347,1.64845 -4.88721,14.55728 c -2.68797,8.0065 -4.85979,14.55728 -4.82627,14.55728 0.0335,0 5.10468,-1.61846 11.26926,-3.59658 z m 40.09421,-7.53075 c -6.46544,-0.75142 -13.14906,-3.02338 -18.8263798,-6.39966 -1.50648,-0.8959 -1.6267,-0.92401 -2.51354,-0.5877 -0.51226,0.19426 -3.4317,1.14571 -6.48763996,2.11433 -3.05593004,0.96862 -6.42196004,2.04793 -7.48004004,2.39846 -2.1877002,0.72474 -2.9710002,0.79691 -2.9710002,0.27373 0,-0.19998 1.25865,-4.12191 2.7969902,-8.7154 l 2.79699,-8.35181 -1.23651,-1.80179 c -1.69469,-2.46944 -4.1452202,-7.58332 -5.2375202,-10.92991 -1.65098,-5.05829 -2.15155,-8.41282 -2.15174,-14.4198 -1.7e-4,-5.37809 0.21088,-7.39107 1.20671,-11.50937 2.64624,-10.94369 9.5574402,-20.79542 19.3936302,-27.64511 3.9220998,-2.73126 9.2448398,-5.09919 14.5783298,-6.48547 7.43594,-1.93275 17.08509,-1.77043 24.65304,0.41473 8.5885,2.47983 16.83302,7.80113 22.51746,14.53356 5.17583,6.13005 8.68285,13.31801 10.42391,21.36477 0.50936,2.35414 0.58864,3.53337 0.60039,8.93002 0.0155,7.12155 -0.3506,9.62991 -2.20114,15.08125 -2.57014,7.57112 -5.81047,12.73171 -11.64328,18.54324 -7.36135,7.33449 -16.26323,11.69435 -26.71951,13.08637 -3.00265,0.39973 -8.5313,0.45048 -11.49915,0.10556 z m 11.92783,-0.90155 c 12.3552,-1.85575 22.68637,-8.02606 30.45646,-18.19017 0.74687,-0.97699 1.35795,-1.88981 1.35795,-2.02848 0,-0.13867 0.0893,-0.29181 0.19844,-0.34032 0.43894,-0.19508 3.24114,-5.25876 3.24114,-5.85686 0,-0.22272 0.0995,-0.44463 0.22116,-0.49314 0.25986,-0.10363 1.33902,-2.91369 2.26927,-5.90903 2.19536,-7.06891 2.33377,-16.17709 0.37089,-24.40601 -0.38707,-1.62273 -0.6634,-2.33492 -0.82125,-2.11667 -0.15935,0.22032 -0.18419,0.16423 -0.0752,-0.16988 0.19961,-0.61203 -0.99094,-3.76372 -2.56366,-6.78664 -2.34464,-4.50667 -2.68509,-5.06456 -3.74517,-6.1371 -0.59399,-0.60097 -0.90773,-0.99018 -0.69721,-0.86489 0.77041,0.45847 -0.97995,-1.66042 -3.68888,-4.46558 -3.7279,-3.86031 -7.43826,-6.60361 -12.03972,-8.90171 -4.4787,-2.23679 -7.26058,-3.26002 -11.1125,-4.08738 -7.56741,-1.62542 -14.53987,-1.4564 -21.89744,0.53082 -6.10166,1.648 -12.1798298,4.74973 -16.9130198,8.63083 -8.21058,6.73248 -13.5710202,15.28695 -15.9487802,25.45189 -1.57086,6.71547 -1.57879,14.73654 -0.0206,20.80878 1.39801,5.44788 3.8469102,11.21982 6.3293002,14.91785 0.67231,1.00154 1.22237,1.92862 1.22237,2.06019 0,0.21442 -4.70359,14.43341 -5.1861602,15.67779 -0.15879,0.40948 -0.10813,0.47471 0.2591802,0.33376 0.26117,-0.10022 0.39018,-0.0678 0.30146,0.0758 -0.0967,0.15639 0.12247,0.16239 0.58157,0.0159 0.40516,-0.12926 2.5226,-0.79126 4.70541,-1.47113 2.18281,-0.67987 5.3904,-1.70044 7.12796,-2.26793 1.73757,-0.5675 3.43211,-1.03181 3.76565,-1.03181 0.33355,0 1.35268,0.45141 2.26475,1.00313 5.2629598,3.18364 12.9379698,5.76819 18.4593498,6.21615 3.1953,0.25925 9.21834,0.15616 11.57726,-0.19816 z m 6.81128,-19.5123 c -1.01864,-0.13122 -2.2688,-0.27107 -2.77812,-0.31077 -1.49356,-0.11644 -1.62593,-0.15099 -1.48038,-0.3865 0.11793,-0.19081 -2.6309,-1.16957 -3.41441,-1.21575 -0.14552,-0.009 -0.42596,-0.16846 -0.6232,-0.3553 -0.19723,-0.18684 -0.57674,-0.27048 -0.84334,-0.18586 -0.26661,0.0846 -0.70055,0.0391 -0.96431,-0.10124 -0.26376,-0.1403 -0.87034,-0.40011 -1.34795,-0.57736 -0.47761,-0.17725 -0.80741,-0.38324 -0.73288,-0.45776 0.13966,-0.13967 -2.38648,-1.3912 -2.7135,-1.34436 -0.51392,0.0736 -0.85848,-0.0645 -0.71996,-0.28866 0.0857,-0.13873 -0.32754,-0.38241 -0.91841,-0.54151 -0.59086,-0.1591 -1.00446,-0.40228 -0.9191,-0.54039 0.0854,-0.13811 -0.17894,-0.39802 -0.58733,-0.57758 -0.40839,-0.17956 -0.80206,-0.39472 -0.87482,-0.47813 -0.48268,-0.55336 -2.12163,-1.58489 -2.41874,-1.52231 -0.19766,0.0416 -0.32962,-0.0731 -0.29323,-0.25503 0.0364,-0.1819 -0.0773,-0.30096 -0.25256,-0.26458 -0.17529,0.0364 -0.32412,-0.0728 -0.33073,-0.24254 -0.007,-0.16977 -0.12041,-0.4079 -0.25288,-0.52916 -0.14221,-0.13018 -0.15421,-0.071 -0.0293,0.14456 0.13706,0.23653 0.0984,0.32736 -0.10972,0.25797 -0.17669,-0.0589 -0.32081,-0.22317 -0.32026,-0.36505 0.001,-0.3793 -0.79295,-1.19182 -1.02502,-1.04839 -0.10958,0.0677 -0.36156,-0.0839 -0.55995,-0.33697 -0.334,-0.42604 -0.32153,-0.43072 0.16846,-0.0632 0.48641,0.36481 0.50088,0.36073 0.17909,-0.0504 -0.19254,-0.24602 -0.5192,-0.3824 -0.7259,-0.30308 -0.21877,0.0839 -0.45947,-0.0707 -0.57597,-0.36993 -0.11008,-0.28278 -1.13601,-1.5308 -2.27985,-2.77337 -1.54058,-1.67356 -2.20933,-2.22534 -2.57969,-2.12848 -0.27499,0.0719 -0.49998,-0.002 -0.49998,-0.1647 0,-0.16249 0.0893,-0.28134 0.19844,-0.26411 0.61865,0.0977 0.54415,-0.15446 -0.38057,-1.2881 -1.26205,-1.5472 -3.02801,-3.91634 -3.65848,-4.90808 -0.25904,-0.4075 -0.61213,-0.68674 -0.78463,-0.62054 -0.1725098,0.0662 -0.3136498,-0.0417 -0.3136498,-0.23966 0,-0.198 0.12899,-0.28652 0.2866398,-0.19669 0.15764,0.0898 0.0365,-0.12377 -0.2692598,-0.47466 -0.30574,-0.35089 -0.62942,-0.84634 -0.7193,-1.101 -0.0899,-0.25466 -0.28621,-0.46302 -0.4363,-0.46302 -0.15009,0 -0.27289,-0.16867 -0.27289,-0.37483 0,-0.20615 -0.12554,-0.41667 -0.27899,-0.46782 -0.15344,-0.0512 -0.30954,-0.26943 -0.34689,-0.48507 -0.15919,-0.91919 -0.48793,-1.57964 -0.71608,-1.43863 -0.13505,0.0835 -0.25735,0.0554 -0.27178,-0.0623 -0.12403,-1.01158 -0.31943,-1.87771 -0.9138,-4.05052 -0.84345,-3.08335 -0.87221,-5.84965 -0.0908,-8.73125 0.29597,-1.0914 0.54976,-2.1332 0.56399,-2.3151 0.0142,-0.1819 0.11708,-0.33073 0.22854,-0.33073 0.2254,0 0.64112,-1.06719 0.54876,-1.40873 -0.0324,-0.11996 0.0392,-0.15742 0.15921,-0.0833 0.12,0.0742 0.36986,-0.10804 0.55525,-0.40489 0.18539,-0.29686 0.21059,-0.46157 0.056,-0.36602 -0.1716,0.10605 -0.21994,0.0144 -0.1241,-0.23538 0.0863,-0.225 0.24593,-0.35413 0.35464,-0.28694 0.10871,0.0672 0.82241,-0.64787 1.586,-1.58902 0.7635998,-0.94115 1.4506598,-1.71118 1.5268098,-1.71118 0.0762,0 -0.0249,0.19773 -0.22466,0.43939 -0.33124,0.40079 -0.31236,0.40776 0.21507,0.0793 0.31801,-0.19803 0.52705,-0.4428 0.46454,-0.54395 -0.0625,-0.10115 0.074,-0.25591 0.30334,-0.34392 0.62602,-0.24023 0.82228,-0.18531 0.37371,0.10457 -0.21828,0.14106 -0.2708,0.2583 -0.11671,0.26053 0.15409,0.002 0.51127,-0.17075 0.79375,-0.38441 0.28247,-0.21365 0.69218,-0.39042 0.91046,-0.39282 0.35278,-0.004 0.35278,0.0241 0,0.25212 -0.2743,0.17726 0.26627,0.25773 1.75026,0.26053 2.40263,0.005 3.19907,0.39088 3.80089,1.8438 0.1821,0.43965 0.41973,0.74458 0.52805,0.67764 0.24175,-0.14941 1.20769,1.92558 0.99527,2.13801 -0.23078,0.23078 0.3523,1.71444 0.61095,1.55458 0.12404,-0.0767 0.36245,0.11644 0.52979,0.42912 0.21082,0.39393 0.2149,0.51329 0.0133,0.38867 -0.16405,-0.10139 -0.29098,9e-5 -0.29098,0.23266 0,0.22687 0.12609,0.41249 0.2802,0.41249 0.15411,0 0.20662,0.11906 0.11668,0.26458 -0.0899,0.14552 -0.0304,0.26458 0.13229,0.26458 0.1627,0 0.22223,0.11907 0.13229,0.26459 -0.0899,0.14552 -0.0529,0.26458 0.0822,0.26458 0.13516,0 0.24492,0.20836 0.24393,0.46302 -0.004,0.9093 0.0743,1.15352 0.31931,1.00209 0.13671,-0.0845 0.24075,0.0573 0.23119,0.31511 -0.01,0.25781 0.27474,1.24265 0.63177,2.18853 0.63475,1.68161 0.69902,2.64583 0.17637,2.64583 -0.14344,0 -0.18721,0.11907 -0.0973,0.26459 0.0899,0.14552 0.0176,0.26458 -0.16077,0.26458 -0.17836,0 -0.25904,0.0653 -0.17927,0.14503 0.0798,0.0798 -0.0724,0.40718 -0.33811,0.7276 -0.26573,0.32042 -0.84693,1.01502 -1.29156,1.54355 -0.44463,0.52853 -0.80841,1.08544 -0.80841,1.23757 0,0.15213 -0.29766,0.51073 -0.66146,0.7969 -0.62997,0.49553 -1.00197,2.14103 -0.39991,1.76893 0.15536,-0.096 0.19082,0.0227 0.0873,0.29237 -0.12756,0.33242 -0.0804,0.39602 0.1762,0.23745 0.20952,-0.12949 0.28659,-0.11328 0.19166,0.0403 -0.21464,0.3473 1.25073,2.52633 1.52906,2.27374 0.12116,-0.10996 0.14845,-0.0734 0.0606,0.0812 -0.20496,0.36089 0.71039,1.77326 0.97667,1.50698 0.11032,-0.11031 0.16088,-0.022 0.11238,0.19631 -0.0488,0.21972 0.0682,0.36442 0.2622,0.32417 0.19272,-0.04 0.28002,0.0412 0.19401,0.18034 -0.086,0.13917 0.11022,0.43977 0.43608,0.66801 0.32585,0.22824 0.50552,0.41498 0.39926,0.41498 -0.10626,0 0.1221,0.35387 0.50747,0.78639 0.38537,0.43251 0.82141,0.71177 0.96896,0.62057 0.14756,-0.0912 0.18963,-0.0385 0.0935,0.11704 -0.17244,0.27901 2.62079,2.97391 3.08242,2.97391 0.13085,0 0.58004,0.36626 0.9982,0.8139 0.41815,0.44764 0.87017,0.74598 1.00447,0.66297 0.1343,-0.083 0.31535,0.0345 0.40233,0.26122 0.0884,0.23048 0.2936,0.32841 0.46548,0.22218 0.19218,-0.11878 0.23588,-0.0743 0.11662,0.11863 -0.12368,0.20012 0.0929,0.3653 0.61628,0.46997 0.44385,0.0888 0.75091,0.25214 0.68236,0.36306 -0.13055,0.21124 1.44283,0.96422 1.78687,0.85515 0.10914,-0.0346 0.19844,0.0372 0.19844,0.15961 0,0.35284 3.5507,1.68762 4.22332,1.58763 0.79606,-0.11833 3.60298,-3.27162 3.1574,-3.54701 -0.19497,-0.12049 -0.24982,-0.0855 -0.14124,0.0902 0.0976,0.15795 0.0669,0.35551 -0.0682,0.43901 -0.13512,0.0835 -0.21054,-0.0571 -0.16761,-0.31244 0.0429,-0.25536 0.22361,-0.43034 0.4015,-0.38885 0.37422,0.0873 1.06149,-0.42092 1.06149,-0.7849 0,-0.13629 -0.13746,-0.16285 -0.30547,-0.059 -0.18925,0.11697 -0.23364,0.0726 -0.11668,-0.11667 0.10384,-0.16801 0.34578,-0.30547 0.53765,-0.30547 0.19188,0 0.51227,-0.20145 0.71199,-0.44766 0.24674,-0.30418 0.25713,-0.38398 0.0324,-0.24897 -0.1819,0.10928 -0.33073,0.14185 -0.33073,0.0724 0,-0.0695 0.42529,-0.38917 0.94509,-0.71043 0.76742,-0.47429 1.17576,-0.55248 2.17213,-0.41591 0.67486,0.0925 1.34495,0.2861 1.48907,0.43022 0.14413,0.14413 0.46644,0.26205 0.71625,0.26205 0.24981,0 0.49389,0.0893 0.54239,0.19844 0.0485,0.10914 0.48074,0.40446 0.9605,0.65627 0.47977,0.25181 0.80101,0.34247 0.71387,0.20147 -0.0891,-0.14419 0.0212,-0.18742 0.25217,-0.0988 0.22584,0.0867 0.41062,0.24581 0.41062,0.35366 0,0.23274 2.14735,1.23198 2.44201,1.13635 0.1121,-0.0364 0.20382,0.0385 0.20382,0.16634 0,0.29064 1.60342,0.97587 2.05052,0.87631 0.1819,-0.0405 0.33073,0.0577 0.33073,0.21814 0,0.16049 0.11906,0.21821 0.26458,0.12828 0.14552,-0.0899 0.26459,-0.0399 0.26459,0.1113 0,0.15115 0.46759,0.51337 1.03909,0.80492 0.5715,0.29156 1.11534,0.77034 1.20853,1.06395 0.26769,0.8434 0.0574,4.56947 -0.29704,5.26264 -0.17667,0.34553 -0.25087,0.81155 -0.16489,1.03559 0.1117,0.29109 0.0551,0.34482 -0.19819,0.18826 -0.25907,-0.16011 -0.30903,-0.10056 -0.18556,0.22118 0.093,0.24248 0.0411,0.44028 -0.11564,0.44028 -0.15652,0 -0.2195,0.16961 -0.13995,0.37691 0.0841,0.21917 -0.12903,0.55622 -0.50929,0.80537 -0.36148,0.23685 -0.57271,0.55988 -0.47232,0.72231 0.0999,0.16161 0.0739,0.22804 -0.0577,0.14761 -0.13162,-0.0804 -0.65603,0.21453 -1.16536,0.65546 -0.50932,0.44093 -0.75882,0.70807 -0.55443,0.59364 0.24236,-0.1357 0.30843,-0.10584 0.18996,0.0858 -0.0999,0.16165 -0.34438,0.23146 -0.54328,0.15513 -0.1989,-0.0763 -0.45161,0.007 -0.56157,0.18473 -0.13979,0.22619 -0.0881,0.25613 0.17167,0.0995 0.31649,-0.19074 0.31775,-0.15756 0.008,0.2237 -0.38339,0.47266 -0.97227,0.6314 -0.69841,0.18827 0.0882,-0.14267 -0.2017,-0.0534 -0.64417,0.19844 -0.44247,0.25181 -0.80524,0.55416 -0.80616,0.67189 -9.2e-4,0.11773 -0.12073,0.14046 -0.26625,0.0505 -0.14553,-0.0899 -0.26459,-0.0247 -0.26459,0.14498 0,0.17012 -0.1842,0.23782 -0.41061,0.15094 -0.22584,-0.0867 -0.34296,-0.0481 -0.26027,0.0857 0.25466,0.41206 -0.31329,0.57534 -2.44164,0.70192 -1.12577,0.067 -2.22545,0.15958 -2.44373,0.20582 -0.21828,0.0462 -1.23031,-0.0233 -2.24896,-0.1545 z m 4.15417,-0.76782 c 3.22674,-0.67757 7.94328,-3.56595 8.90446,-5.45306 1.23768,-2.42993 1.81708,-6.50935 1.01866,-7.17199 -0.18838,-0.15634 -2.12315,-1.16807 -4.29948,-2.24829 -8.54713,-4.24236 -8.63494,-4.26505 -9.82679,-2.53923 -1.0605,1.53563 -3.72019,4.7905 -4.36165,5.33771 -0.59165,0.50471 -2.31568,0.62334 -3.06744,0.21107 -0.25268,-0.13858 -1.3524,-0.66255 -2.4438,-1.16438 -5.33765,-2.45425 -11.10672,-7.48852 -14.62414,-12.76147 -2.3746,-3.55975 -2.37433,-3.86864 0.006,-6.63386 0.98226,-1.14114 2.00196,-2.55772 2.266,-3.14796 0.54887,-1.22696 0.63695,-0.92019 -2.30843,-8.03912 -2.81595,-6.80608 -2.67927,-6.66977 -6.40153,-6.38434 -2.79015,0.21395 -3.24887,0.47996 -5.3454498,3.09984 -2.93117,3.66278 -3.94173,8.58024 -2.72663,13.26792 0.81987,3.16294 2.55369,6.57741 5.3283898,10.49341 3.41467,4.81921 5.01143,6.70108 8.7661,10.33129 5.37527,5.1971 9.28365,7.63976 16.56396,10.35212 6.8692,2.55919 9.54545,3.08164 12.55186,2.45034 z m -33.32448,-51.21714 c 0.25466,-0.0666 0.67138,-0.0666 0.92604,0 0.25466,0.0666 0.0463,0.121 -0.46302,0.121 -0.50932,0 -0.71768,-0.0544 -0.46302,-0.121 z m 9.65178,81.24962 c -0.0879,-0.0879 -0.31612,-0.0973 -0.50712,-0.0209 -0.21107,0.0845 -0.14837,0.14716 0.15985,0.15986 0.27892,0.0115 0.43519,-0.051 0.34727,-0.13897 z m 41.11582,-11.68025 c 0.32911,-0.41965 0.31975,-0.429 -0.0999,-0.0999 -0.44073,0.34565 -0.58089,0.56292 -0.36313,0.56292 0.055,0 0.26331,-0.20836 0.46302,-0.46302 z m 3.80271,-3.24115 c 0.56839,-0.58208 0.97391,-1.05833 0.90115,-1.05833 -0.0728,0 -0.59734,0.47625 -1.16573,1.05833 -0.56839,0.58209 -0.9739,1.05834 -0.90114,1.05834 0.0728,0 0.59734,-0.47625 1.16572,-1.05834 z m 1.85209,-1.85208 c 0.26339,-0.29104 0.41936,-0.52917 0.3466,-0.52917 -0.0728,0 -0.3478,0.23813 -0.61119,0.52917 -0.26338,0.29104 -0.41935,0.52917 -0.34659,0.52917 0.0728,0 0.34779,-0.23813 0.61118,-0.52917 z m 2.24896,-2.51354 c 0.34177,-0.3638 0.56187,-0.66146 0.48911,-0.66146 -0.0728,0 -0.41192,0.29766 -0.7537,0.66146 -0.34177,0.3638 -0.56187,0.66146 -0.48911,0.66146 0.0728,0 0.41192,-0.29766 0.7537,-0.66146 z m 1.35666,-1.65365 c 0.32911,-0.41964 0.31975,-0.429 -0.0999,-0.0999 -0.44073,0.34564 -0.58089,0.56291 -0.36313,0.56291 0.0549,0 0.2633,-0.20836 0.46302,-0.46302 z m 1.29706,-1.66838 c 0.40205,-0.75125 0.12782,-0.62866 -0.40178,0.1796 -0.25011,0.38172 -0.32398,0.61322 -0.16414,0.51444 0.15983,-0.0988 0.41449,-0.4111 0.56592,-0.69404 z m 3.69628,-5.8061 c 0.155757,-0.29104 0.223667,-0.52916 0.150906,-0.52916 -0.07276,0 -0.259736,0.23812 -0.415496,0.52916 -0.15576,0.29104 -0.22367,0.52917 -0.15091,0.52917 0.0728,0 0.25974,-0.23813 0.4155,-0.52917 z m 0.785644,-1.71979 c 0,-0.14552 -0.115417,-0.086 -0.256481,0.13229 -0.141064,0.21828 -0.25648,0.51594 -0.25648,0.66146 0,0.14552 0.115416,0.086 0.25648,-0.13229 0.141064,-0.21828 0.256481,-0.51594 0.256481,-0.66146 z m 0.750754,-1.5945 c -0.08146,-0.0815 -0.229406,0.0654 -0.328766,0.32632 -0.143585,0.37708 -0.113194,0.40747 0.148113,0.14811 0.180821,-0.17947 0.262115,-0.39297 0.180653,-0.47443 z m 1.101329,-2.37425 c 0,-0.14552 -0.115416,-0.086 -0.25648,0.13229 -0.141065,0.21828 -0.256481,0.51594 -0.256481,0.66146 0,0.14552 0.115416,0.086 0.256481,-0.13229 0.141064,-0.21828 0.25648,-0.51594 0.25648,-0.66146 z m 2.30551,-7.06107 c -0.08446,-0.21106 -0.147156,-0.14837 -0.159852,0.15985 -0.01149,0.27892 0.05105,0.43519 0.138964,0.34727 0.08792,-0.0879 0.09732,-0.31612 0.02089,-0.50712 z m 0.788238,-3.45612 c -0.0734,-0.1819 -0.133452,-0.0331 -0.133452,0.33073 0,0.3638 0.06005,0.51263 0.133452,0.33073 0.0734,-0.1819 0.0734,-0.47956 0,-0.66146 z m 0.272709,-1.45017 c -0.06708,-0.25743 -0.126382,-0.11087 -0.131774,0.32569 -0.0054,0.43657 0.04949,0.64719 0.12197,0.46806 0.07247,-0.17913 0.07689,-0.53632 0.0098,-0.79375 z m 0.256458,-1.72483 c -0.0734,-0.1819 -0.133452,-0.0331 -0.133452,0.33073 0,0.3638 0.06005,0.51263 0.133452,0.33073 0.0734,-0.1819 0.0734,-0.47956 0,-0.66146 z m 0.270095,-1.04179 c -0.08446,-0.21107 -0.147156,-0.14838 -0.159852,0.15985 -0.01149,0.27891 0.05105,0.43518 0.138964,0.34726 0.08792,-0.0879 0.09732,-0.31612 0.02089,-0.50711 z m 0.167634,-1.80248 c 0.10512,-0.79502 0.07958,-1.0148 -0.07688,-0.66146 -0.223745,0.50532 -0.375057,2.19215 -0.176025,1.96233 0.05251,-0.0606 0.166316,-0.64602 0.252902,-1.30087 z m 0.112375,-6.40578 c -0.05181,-0.9152 -0.09463,-0.23526 -0.09516,1.51099 -5.24e-4,1.74625 0.04187,2.49506 0.09421,1.66401 0.05234,-0.83104 0.05276,-2.25979 9.5e-4,-3.175 z m -0.27124,-4.90516 c -0.06062,-0.40018 -0.110223,-0.0728 -0.110223,0.72761 0,0.80036 0.0496,1.12778 0.110223,0.7276 0.06062,-0.40018 0.06062,-1.05502 0,-1.45521 z m -0.270739,-1.84704 c -0.06708,-0.25744 -0.126381,-0.11087 -0.131773,0.32569 -0.0054,0.43656 0.04949,0.64719 0.121969,0.46806 0.07248,-0.17914 0.07689,-0.53632 0.0098,-0.79375 z m -0.315645,-2.18785 c -0.101656,-0.6017 -0.236488,-1.04233 -0.299627,-0.9792 -0.06314,0.0631 -0.03546,0.61094 0.0615,1.21732 0.09696,0.60639 0.231797,1.04702 0.299627,0.9792 0.06783,-0.0678 0.04015,-0.61563 -0.0615,-1.21732 z m -0.48623,-2.18282 c -0.0734,-0.1819 -0.133452,-0.0331 -0.133452,0.33073 0,0.36381 0.06005,0.51263 0.133452,0.33073 0.0734,-0.1819 0.0734,-0.47955 0,-0.66146 z m -0.340593,-1.48828 c -0.09297,-0.46485 -0.224191,-0.79004 -0.291599,-0.72263 -0.06741,0.0674 -0.04037,0.49677 0.06009,0.95414 0.238327,1.0851 0.452081,0.87134 0.231511,-0.23151 z m -1.158804,-3.66112 c -0.288291,-0.44961 -0.295758,-0.44903 -0.151017,0.0117 0.08375,0.26656 0.161668,0.62375 0.173157,0.79375 0.01508,0.22309 0.0571,0.21984 0.151017,-0.0117 0.07157,-0.17642 -0.0063,-0.53361 -0.173157,-0.79375 z m -1.687241,-4.4845 c -0.223843,-0.41304 -0.411754,-0.6673 -0.417581,-0.565 -0.01791,0.3145 0.597632,1.54294 0.71455,1.42602 0.06051,-0.0605 -0.07313,-0.44797 -0.296969,-0.86102 z m -0.659926,-1.48301 c -0.261307,-0.25936 -0.291698,-0.22897 -0.148112,0.14812 0.09936,0.26093 0.247304,0.40778 0.328765,0.32632 0.08146,-0.0815 1.68e-4,-0.29496 -0.180653,-0.47444 z m -0.681575,-1.49235 c -0.581201,-1.12392 -0.769735,-1.03669 -0.225598,0.10438 0.242008,0.50749 0.486986,0.87575 0.544396,0.81834 0.05741,-0.0574 -0.08605,-0.47264 -0.318798,-0.92272 z m -1.308673,-2.33969 c -0.21093,-0.40019 -0.58373,-0.96573 -0.82846,-1.25677 -0.42685,-0.50765 -0.42935,-0.50227 -0.0613,0.13229 0.21099,0.3638 0.52539,0.92935 0.69868,1.25677 0.17328,0.32742 0.37346,0.59531 0.44484,0.59531 0.0714,0 -0.0428,-0.32742 -0.25373,-0.7276 z m -1.48217,-2.4474 c -0.15576,-0.29104 -0.34273,-0.52917 -0.41549,-0.52917 -0.0728,0 -0.005,0.23813 0.15091,0.52917 0.15576,0.29104 0.34273,0.52917 0.41549,0.52917 0.0728,0 0.005,-0.23813 -0.15091,-0.52917 z m -0.82762,-1.30903 c -0.19965,-0.28341 -0.71686,-1.02755 -1.14936,-1.65365 -1.02939,-1.49018 -1.99177,-2.67883 -1.99177,-2.46007 0,0.23358 3.20035,4.629 3.37042,4.629 0.0735,0 -0.0296,-0.23188 -0.22929,-0.51528 z m -3.96863,-5.23282 c -0.66767,-0.83923 -2.06297,-2.1894 -2.26259,-2.1894 -0.10852,0 0.38905,0.59531 1.10572,1.32292 1.30353,1.32342 1.8402,1.72538 1.15687,0.86648 z m -3.00631,-3.24497 c -0.4168,-0.43505 -0.81,-0.73881 -0.87378,-0.67503 -0.11023,0.11022 1.27281,1.44008 1.51595,1.45766 0.0636,0.005 -0.22537,-0.34759 -0.64217,-0.78263 z m -1.48817,-1.25953 c -0.16465,-0.25467 -0.67168,-0.752 -1.12672,-1.10518 -0.69336,-0.53818 -0.65797,-0.4632 0.21855,0.46302 1.12975,1.19381 1.37865,1.3698 0.90817,0.64216 z m -74.5484398,-1.05834 c 0.32911,-0.41964 0.31975,-0.429 -0.0999,-0.0999 -0.25466,0.19972 -0.46302,0.40808 -0.46302,0.46302 0,0.21776 0.21727,0.0776 0.56291,-0.36313 z m 72.1975098,-0.95979 c 0,-0.0549 -0.20836,-0.2633 -0.46302,-0.46302 -0.41965,-0.32911 -0.42901,-0.31975 -0.0999,0.0999 0.34564,0.44072 0.56292,0.58088 0.56292,0.36312 z m -1.27858,-1.0373 c -0.15676,-0.18889 -0.85595,-0.74361 -1.55375,-1.2327 -1.49081,-1.04493 -1.24592,-0.70958 0.45108,0.6177 1.2858,1.00567 1.54849,1.15218 1.10267,0.615 z m -5.33601,-3.7576 c -0.18115,-0.21828 -0.45661,-0.39687 -0.61213,-0.39687 -0.15552,0 -0.0516,0.17481 0.23083,0.38846 0.6637,0.502 0.79331,0.50486 0.3813,0.008 z m -1.05833,-0.53305 c 0,-0.19337 -1.66637,-1.18544 -1.98438,-1.1814 -0.14552,0.002 0.21167,0.28784 0.79375,0.63553 1.24538,0.74389 1.19063,0.71879 1.19063,0.54587 z m -2.51354,-1.45132 c -0.0899,-0.14552 -0.30533,-0.26276 -0.47864,-0.26053 -0.18934,0.002 -0.1567,0.10642 0.0818,0.26053 0.5083,0.32849 0.59989,0.32849 0.39688,0 z m -2.77813,-1.32292 c -0.21828,-0.14106 -0.51594,-0.25648 -0.66146,-0.25648 -0.14552,0 -0.086,0.11542 0.1323,0.25648 0.21828,0.14107 0.51593,0.25648 0.66145,0.25648 0.14552,0 0.086,-0.11541 -0.13229,-0.25648 z m -6.95082,-2.5411 c -0.0879,-0.0879 -0.31612,-0.0973 -0.50712,-0.0209 -0.21107,0.0845 -0.14837,0.14716 0.15985,0.15985 0.27892,0.0115 0.43519,-0.051 0.34727,-0.13896 z m -1.97887,-0.54454 c -0.1819,-0.0734 -0.47955,-0.0734 -0.66145,0 -0.18191,0.0734 -0.0331,0.13345 0.33073,0.13345 0.3638,0 0.51263,-0.06 0.33072,-0.13345 z m -21.16666,-1.05834 c -0.1819,-0.0734 -0.47956,-0.0734 -0.66146,0 -0.1819,0.0734 -0.0331,0.13346 0.33073,0.13346 0.3638,0 0.51263,-0.0601 0.33073,-0.13346 z m 15.61041,0 c -0.1819,-0.0734 -0.47955,-0.0734 -0.66145,0 -0.18191,0.0734 -0.0331,0.13346 0.33072,0.13346 0.36381,0 0.51264,-0.0601 0.33073,-0.13346 z m -13.10238,-0.2492 c -0.0879,-0.0879 -0.31613,-0.0973 -0.50712,-0.0209 -0.21107,0.0845 -0.14837,0.14716 0.15985,0.15985 0.27892,0.0115 0.43519,-0.051 0.34727,-0.13896 z m 10.84791,0 c -0.0879,-0.0879 -0.31612,-0.0973 -0.50711,-0.0209 -0.21107,0.0845 -0.14838,0.14716 0.15985,0.15985 0.27891,0.0115 0.43518,-0.051 0.34726,-0.13896 z m -5.01457,-0.29706 c -0.54186,-0.0568 -1.49436,-0.0576 -2.11667,-0.002 -0.62231,0.0559 -0.17897,0.10241 0.98519,0.10337 1.16417,9.6e-4 1.67333,-0.0448 1.13148,-0.10162 z"
         id="path671" /><path
         style="fill:#000000;fill-rule:evenodd;stroke-width:1.35833"
         d="m 102.1698,1164.6251 c -19.506723,-2.2266 -43.691697,-9.9351 -61.866637,-19.7187 -3.670925,-1.9761 -8.583834,-4.5451 -10.917577,-5.7089 l -4.243163,-2.116 -3.714787,0.9008 c -2.043129,0.4954 -10.081515,2.9244 -17.8630753,5.3978 -35.9921587,11.4402 -39.5868397,12.5023 -40.0077317,11.8213 -0.224391,-0.3631 -0.664853,-0.5014 -0.978802,-0.3074 -0.340425,0.2104 -0.570818,-0.031 -0.570818,-0.5992 0,-0.5236 4.162075,-13.5137 9.249057,-28.8669 5.086981,-15.3531 9.376402,-28.7428 9.532046,-29.7549 0.253679,-1.6494 -0.176572,-2.5579 -4.15395,-8.7711 -10.240541,-15.9972 -20.392823,-40.4166 -24.597912,-59.1657 -5.166144,-23.0342 -4.991369,-50.0984 0.481724,-74.59539 11.999366,-53.70793 49.2257208,-98.83251 99.850268,-121.03526 16.603075,-7.28173 34.804194,-12.10524 52.881858,-14.01432 10.50115,-1.10896 29.43569,-0.75241 39.56158,0.74497 17.26837,2.5536 28.50907,5.59765 42.20912,11.43048 26.81807,11.41787 44.75723,23.95069 63.70243,44.50441 8.10492,8.79306 10.18384,11.33447 9.79132,11.96956 -0.15709,0.25418 1.14095,2.0172 2.88454,3.91782 3.58493,3.90777 6.10162,7.98067 12.4458,20.14168 6.88025,13.18859 11.15451,23.84913 11.15451,27.82078 0,1.16819 0.22959,1.9056 0.56945,1.829 1.93545,-0.43624 6.39967,22.33902 7.62315,38.89127 1.25308,16.95279 0.0814,34.3068 -3.37973,50.0581 -2.06596,9.402 -8.23307,27.413 -11.33894,33.1153 -0.3076,0.5648 -1.16461,2.5362 -1.90447,4.381 -1.53054,3.8163 -7.89525,15.2537 -9.99028,17.9526 -0.76719,0.9883 -2.01648,2.8732 -2.7762,4.1885 -3.73507,6.4669 -17.1464,22.0252 -25.95741,30.1129 -26.03091,23.894 -55.30336,38.2337 -90.44109,44.3045 -5.68409,0.982 -8.64788,1.1241 -25.92751,1.2424 -10.7304,0.073 -20.31844,0.041 -21.30677,-0.071 z m 87.28074,-74.1289 c 8.66074,-0.7397 9.84004,-0.9852 10.13413,-2.1098 0.15949,-0.6099 0.70913,-0.9711 1.47761,-0.9711 0.67301,0 1.22366,-0.231 1.22366,-0.5134 0,-0.2824 0.46208,-0.5134 1.02683,-0.5134 0.56476,0 1.02684,-0.2122 1.02684,-0.4716 0,-0.9041 3.53999,-2.6953 4.6381,-2.3467 1.28439,0.4076 3.36611,-0.844 3.82892,-2.3022 0.21246,-0.6694 0.77568,-1.0405 1.57919,-1.0405 1.1085,0 1.49038,-0.4788 1.31599,-1.6499 -0.0806,-0.5413 4.58611,-3.9977 5.39765,-3.9977 0.38296,0 0.69629,-0.4347 0.69629,-0.9659 0,-0.5313 0.80863,-1.5827 1.79696,-2.3365 1.33761,-1.0203 1.79696,-1.7577 1.79696,-2.8847 0,-0.8328 0.23103,-1.5142 0.51341,-1.5142 0.28238,0 0.51342,-0.5703 0.51342,-1.2674 0,-0.9157 0.21374,-1.1854 0.77012,-0.9719 0.58974,0.2263 0.77143,-0.1082 0.77568,-1.428 0.003,-0.9479 0.37037,-2.8787 0.81626,-4.2906 0.52696,-1.6686 0.9083,-5.4449 1.08954,-10.7896 l 0.27883,-8.2225 -1.37867,-1.6384 c -0.75827,-0.9012 -2.63864,-2.3594 -4.17862,-3.2405 -1.53997,-0.881 -3.03314,-2.0377 -3.31816,-2.5702 -0.28503,-0.5326 -0.83144,-0.8481 -1.21426,-0.7012 -0.38283,0.1469 -0.83412,-0.093 -1.00289,-0.5326 -0.16876,-0.4398 -0.86265,-0.7996 -1.54195,-0.7996 -1.90318,0 -5.39837,-1.3874 -7.09797,-2.8175 -0.84306,-0.7094 -1.85508,-1.2898 -2.24894,-1.2898 -1.20361,0 -6.22778,-2.4019 -7.33026,-3.5044 -1.49818,-1.4982 -2.8621,-2.1271 -3.98549,-1.8376 -0.57833,0.1491 -2.03592,-0.4297 -3.54856,-1.4091 -4.69086,-3.037 -11.58941,-5.1958 -15.74883,-4.9283 -2.32043,0.1493 -3.49983,0.5768 -5.79442,2.1003 -1.87817,1.247 -2.82987,2.2133 -2.73414,2.7761 0.0957,0.5629 -0.50944,1.177 -1.73926,1.765 -2.21392,1.0585 -2.8746,1.9084 -1.93497,2.4892 0.98282,0.6074 -0.23896,1.9266 -2.27614,2.4576 -1.3753,0.3584 -1.60815,0.6577 -1.63283,2.0986 -0.0206,1.2004 -0.68054,2.4795 -2.31037,4.4778 -2.87734,3.5279 -7.47467,7.377 -8.81089,7.377 -2.75274,0 -15.29088,-5.0589 -15.29088,-6.1696 0,-0.2777 -0.51983,-0.5099 -1.15518,-0.5161 -1.73047,-0.017 -5.36218,-1.8164 -5.9744,-2.9604 -0.31311,-0.585 -1.51907,-1.2523 -2.88488,-1.5962 -1.76661,-0.4448 -2.31027,-0.81 -2.19884,-1.4771 0.0949,-0.5683 -0.14456,-0.8388 -0.66771,-0.7543 -0.44865,0.073 -1.23533,-0.3318 -1.74817,-0.8984 -0.51285,-0.5667 -1.28303,-1.0304 -1.71152,-1.0304 -0.42849,0 -2.0677,-1.1018 -3.64269,-2.4485 -1.575,-1.3466 -3.90329,-3.1168 -5.174,-3.9337 -3.49104,-2.2442 -9.7549,-8.6938 -9.7549,-10.0441 0,-0.8096 -0.226398,-1.0528 -0.781606,-0.8398 -0.929642,0.3568 -4.659667,-2.8385 -5.162316,-4.4222 -0.187105,-0.5895 -1.005598,-1.6318 -1.81888,-2.3161 -0.813276,-0.6843 -1.478689,-1.65883 -1.478689,-2.16555 0,-0.50673 -0.462075,-1.04215 -1.026832,-1.18984 -0.564758,-0.14769 -1.026833,-0.60976 -1.026833,-1.02683 0,-0.41707 -0.443925,-0.8744 -0.986493,-1.01628 -1.195145,-0.31254 -3.232663,-4.10714 -2.804479,-5.22296 0.205695,-0.53603 0.01114,-0.79983 -0.589889,-0.79983 -0.493244,0 -1.223984,-0.40431 -1.623863,-0.89847 -1.974034,-2.43947 -3.750181,-5.58739 -3.750181,-6.64658 0,-0.7093 -0.308384,-1.18302 -0.770125,-1.18302 -0.435202,0 -0.770124,-0.45974 -0.770124,-1.05713 0,-0.58143 -0.231037,-0.91435 -0.513416,-0.73983 -0.77686,0.48013 -0.623477,-2.66324 0.207929,-4.26118 0.396737,-0.76252 1.335811,-1.96052 2.086825,-2.66223 0.75102,-0.70171 1.70082,-1.98249 2.110664,-2.84618 0.409845,-0.86368 2.378893,-3.52407 4.375671,-5.91198 1.996773,-2.38791 3.896315,-4.91925 4.221205,-5.62519 0.324889,-0.70595 0.93972,-1.55345 1.366287,-1.88334 0.426567,-0.32988 0.604137,-0.77124 0.394591,-0.98078 -0.209546,-0.20954 0.106632,-0.72253 0.70261,-1.13997 1.43719,-1.00664 1.114519,-3.36196 -1.606325,-11.72516 -1.127985,-3.46715 -2.050887,-6.66031 -2.050887,-7.09591 0,-0.43559 -0.32184,-0.79198 -0.715193,-0.79198 -0.892348,0 -1.338471,-1.11622 -1.338471,-3.3489 0,-0.94857 -0.231037,-1.86745 -0.513416,-2.04197 -0.282379,-0.17452 -0.513416,-0.7465 -0.513416,-1.27106 0,-0.52456 -0.274339,-1.04519 -0.609646,-1.15696 -0.35304,-0.11768 -0.634628,-1.30484 -0.669002,-2.82048 -0.06094,-2.68692 -0.85168,-4.2497 -2.150294,-4.2497 -1.056903,0 -2.835505,-4.2865 -2.437161,-5.87364 0.412643,-1.64408 -2.313612,-7.65899 -3.842231,-8.47709 -0.591132,-0.31636 -1.640714,-1.692 -2.332398,-3.05697 -1.530083,-3.01948 -3.81023,-5.02758 -6.222552,-5.48013 -1.463734,-0.2746 -1.775413,-0.54459 -1.653487,-1.43233 0.131722,-0.95903 -0.103022,-1.09394 -1.903413,-1.09394 -1.671062,0 -2.02556,0.16739 -1.902802,0.89848 0.131655,0.7841 -0.304158,0.89848 -3.423572,0.89848 -4.123696,0 -5.245829,-0.30651 -4.854601,-1.32603 0.372859,-0.97165 -1.201363,-0.94359 -3.117277,0.0556 -0.819325,0.42728 -1.933782,0.63592 -2.476576,0.46365 -1.213587,-0.38518 -3.991692,0.7003 -3.991692,1.55966 0,0.34554 -0.515855,1.06838 -1.14634,1.60631 -0.965397,0.82367 -1.034888,0.83428 -0.440254,0.0672 0.388348,-0.50099 0.539775,-1.0772 0.336503,-1.28047 -0.367565,-0.36756 -0.923718,0.19709 -7.674179,7.79143 -1.943368,2.18632 -4.10659,4.19305 -4.807161,4.4594 -1.041727,0.39607 -1.224251,0.73978 -1.001994,1.88682 0.310073,1.60019 -0.872304,3.28628 -2.000839,2.85321 -0.507855,-0.19488 -0.721883,0.12472 -0.721883,1.07795 0,1.64713 -1.305792,4.9159 -1.963781,4.9159 -0.761832,0 -4.166946,14.45267 -4.784442,20.30713 -0.763311,7.23689 0.01685,14.22691 2.87667,25.77417 1.241035,5.01101 2.399266,9.97731 2.573842,11.03624 0.232337,1.40928 0.569692,1.92531 1.258686,1.92531 0.932133,0 1.42705,0.89262 2.571332,4.63757 0.304815,0.99758 1.014931,2.20826 1.57803,2.69041 0.563105,0.48214 1.023824,1.19887 1.023824,1.59272 0,0.39386 0.577593,1.09456 1.28354,1.55711 0.705947,0.46256 1.28354,1.08285 1.28354,1.37844 0,0.29559 0.670455,1.5119 1.489898,2.70292 1.066776,1.55051 1.414292,2.56096 1.223686,3.55806 -0.215116,1.12531 -0.07609,1.39258 0.72442,1.39258 1.256155,0 2.627545,1.51179 7.451783,8.21464 2.133973,2.965 5.755096,7.7831 8.046945,10.7068 2.291843,2.9237 4.166993,5.6521 4.166993,6.0629 0,0.4109 -0.204859,0.6205 -0.455241,0.4657 -0.625274,-0.3864 -1.76531,1.0757 -1.355614,1.7386 0.182165,0.2947 1.158123,0.5359 2.168798,0.5359 1.65149,0 2.348278,0.5226 6.880125,5.1602 4.566738,4.6733 10.181837,11.2798 11.501619,13.5324 0.282379,0.4819 0.900624,0.9317 1.373876,0.9996 0.473251,0.068 1.29921,0.6652 1.835457,1.3274 0.536248,0.6622 1.762373,1.4598 2.72472,1.7724 1.243437,0.4039 2.097638,1.1998 2.952107,2.7504 0.768727,1.395 1.558859,2.182 2.190751,2.182 0.543605,0 0.988367,0.3466 0.988367,0.7701 0,0.4236 0.435131,0.7702 0.966953,0.7702 0.531822,0 1.078625,0.427 1.215112,0.9489 0.140963,0.5391 0.887599,1.0778 1.728482,1.2471 0.814175,0.1639 3.176336,1.5274 5.249238,3.03 2.072907,1.5026 4.833267,3.3484 6.134127,4.1018 1.30087,0.7535 2.52873,1.812 2.7286,2.3523 0.22066,0.5965 1.56953,1.4221 3.4342,2.102 2.06346,0.7523 3.15837,1.4544 3.33768,2.1401 0.20023,0.7657 0.70227,1.0205 2.01069,1.0205 1.9541,0 9.49089,3.4428 10.99164,5.0209 1.57598,1.6573 8.32785,4.2206 11.11723,4.2206 1.60012,0 2.95887,0.3445 3.86034,0.9788 0.76511,0.5383 2.66181,1.26 4.21489,1.6036 4.30751,0.9531 10.78174,3.5623 10.78174,4.3452 0,0.4764 1.07949,0.8041 3.46556,1.052 1.90606,0.198 5.89145,0.6504 8.85643,1.0052 6.82541,0.8167 13.537,0.8987 21.05006,0.2571 z"
         id="path672"
         transform="scale(0.26458333)" /></g></g></svg>
